<svg xmlns="http://www.w3.org/2000/svg" width="440" height="144" class="svgbob">
  <style>.svgbob line, .svgbob path, .svgbob circle, .svgbob rect, .svgbob polygon {
  stroke: black;
  stroke-width: 2;
  stroke-opacity: 1;
  fill-opacity: 1;
  stroke-linecap: round;
  stroke-linejoin: miter;
}

.svgbob text {
  white-space: pre;
  fill: black;
  font-family: Iosevka Fixed, monospace;
  font-size: 14px;
}

.svgbob rect.backdrop {
  stroke: none;
  fill: white;
}

.svgbob .broken {
  stroke-dasharray: 8;
}

.svgbob .filled {
  fill: black;
}

.svgbob .bg_filled {
  fill: white;
  stroke-width: 1;
}

.svgbob .nofill {
  fill: white;
}

.svgbob .end_marked_arrow {
  marker-end: url(#arrow);
}

.svgbob .start_marked_arrow {
  marker-start: url(#arrow);
}

.svgbob .end_marked_diamond {
  marker-end: url(#diamond);
}

.svgbob .start_marked_diamond {
  marker-start: url(#diamond);
}

.svgbob .end_marked_circle {
  marker-end: url(#circle);
}

.svgbob .start_marked_circle {
  marker-start: url(#circle);
}

.svgbob .end_marked_open_circle {
  marker-end: url(#open_circle);
}

.svgbob .start_marked_open_circle {
  marker-start: url(#open_circle);
}

.svgbob .end_marked_big_open_circle {
  marker-end: url(#big_open_circle);
}

.svgbob .start_marked_big_open_circle {
  marker-start: url(#big_open_circle);
}

</style>
  <defs>
    <marker id="arrow" viewBox="-2 -2 8 8" refX="4" refY="2" markerWidth="7" markerHeight="7" orient="auto-start-reverse">
      <polygon points="0,0 0,4 4,2 0,0"></polygon>
    </marker>
    <marker id="diamond" viewBox="-2 -2 8 8" refX="4" refY="2" markerWidth="7" markerHeight="7" orient="auto-start-reverse">
      <polygon points="0,2 2,0 4,2 2,4 0,2"></polygon>
    </marker>
    <marker id="circle" viewBox="0 0 8 8" refX="4" refY="4" markerWidth="7" markerHeight="7" orient="auto-start-reverse">
      <circle cx="4" cy="4" r="2" class="filled"></circle>
    </marker>
    <marker id="open_circle" viewBox="0 0 8 8" refX="4" refY="4" markerWidth="7" markerHeight="7" orient="auto-start-reverse">
      <circle cx="4" cy="4" r="2" class="bg_filled"></circle>
    </marker>
    <marker id="big_open_circle" viewBox="0 0 8 8" refX="4" refY="4" markerWidth="7" markerHeight="7" orient="auto-start-reverse">
      <circle cx="4" cy="4" r="3" class="bg_filled"></circle>
    </marker>
  </defs>
  <rect class="backdrop" x="0" y="0" width="440" height="144"></rect>
  <text x="34" y="12" >index</text>
  <text x="162" y="12" >0</text>
  <text x="266" y="12" >1</text>
  <text x="370" y="12" >2</text>
  <text x="170" y="44" >1</text>
  <text x="266" y="44" >17</text>
  <text x="370" y="44" >22</text>
  <text x="2" y="44" >playerNumbers</text>
  <text x="2" y="76" >firstNames</text>
  <text x="2" y="108" >lastNames</text>
  <text x="130" y="76" >Thibaut</text>
  <text x="234" y="76" >Lucas</text>
  <text x="338" y="76" >Antonio</text>
  <text x="130" y="108" >Courtois</text>
  <text x="234" y="108" >Vazquez</text>
  <text x="338" y="108" >Rudiger</text>
  <g>
    <line x1="116" y1="24" x2="428" y2="24" class="solid"></line>
    <line x1="116" y1="24" x2="116" y2="120" class="solid"></line>
    <line x1="220" y1="24" x2="220" y2="120" class="solid"></line>
    <line x1="324" y1="24" x2="324" y2="120" class="solid"></line>
    <line x1="428" y1="24" x2="428" y2="120" class="solid"></line>
    <line x1="116" y1="56" x2="428" y2="56" class="solid"></line>
    <line x1="116" y1="88" x2="428" y2="88" class="solid"></line>
    <line x1="116" y1="120" x2="428" y2="120" class="solid"></line>
  </g>
</svg>